<svg xmlns="http://www.w3.org/2000/svg" viewBox="0 0 30500 1024" width="30500" height="1024"><path d="M60 0Q0 0 0 60v904q0 60 60 60h440V0zM560.99 0q-60 0-60 60c0 410-.99 650-.99 904q0 60 60 60h440V0zM1064.256 0q-60 0-60 60c0 410-4.256 650-4.256 904q0 60 60 60h440V0zM1570.345 0q-60 0-60 60c0 410-10.345 650-10.345 904q0 60 60 60h440V0zM2079.972 0q-60 0-60 60c0 410-19.972 650-19.972 904q0 60 60 60h440V0zM2594.042 0q-60 0-60 60c0 410-34.042 650-34.042 904q0 60 60 60h440V0zM3113.579 0q-60 0-60 60c0 410-53.579 650-53.579 904q0 60 60 60h440V0zM3639.385 0q-60 0-60 60c0 410-79.385 650-79.385 904q0 60 60 60h440V0z" fill="#ffffff"/><path d="M4171.221 0q-60 0-60 60c0 410-111.221 650-111.221 904q0 60 60 60h440V0zM4706.918 0q-60 0-60 60c0 410-146.918 650-146.918 904q0 60 60 60h440V0zM5242.901 0q-60 0-60 60c0 410-182.901 650-182.901 904q0 60 60 60h440V0zM5776.182 0q-60 0-60 60c0 410-216.182 650-216.182 904q0 60 60 60h440V0zM6305.438 0q-60 0-60 60c0 410-245.438 650-245.438 904q0 60 60 60h440V0zM6830.568 0q-60 0-60 60c0 410-270.568 650-270.568 904q0 60 60 60h440V0zM7351.987 0q-60 0-60 60c0 410-291.987 650-291.987 904q0 60 60 60h440V0zM7870.225 0q-60 0-60 60c0 410-310.225 650-310.225 904q0 60 60 60h440V0z" fill="#ffffff"/><path d="M8385.773 0q-60 0-60 60c0 410-325.773 650-325.773 904q0 60 60 60h440V0zM8899.047 0q-60 0-60 60c0 410-339.047 650-339.047 904q0 60 60 60h440V0zM9410.387 0q-60 0-60 60c0 410-350.387 650-350.387 904q0 60 60 60h440V0zM9920.067 0q-60 0-60 60c0 410-360.067 650-360.067 904q0 60 60 60h440V0zM10428.31 0q-60 0-60 60c0 410-368.31 650-368.31 904q0 60 60 60h440V0zM10935.298 0q-60 0-60 60c0 410-375.298 650-375.298 904q0 60 60 60h440V0zM11441.181 0q-60 0-60 60c0 410-381.181 650-381.181 904q0 60 60 60h440V0zM11946.082 0q-60 0-60 60c0 410-386.082 650-386.082 904q0 60 60 60h440V0zM12450.107 0q-60 0-60 60c0 410-390.107 650-390.107 904q0 60 60 60h440V0zM12953.343 0q-60 0-60 60c0 410-393.343 650-393.343 904q0 60 60 60h440V0zM13455.867 0q-60 0-60 60c0 410-395.867 650-395.867 904q0 60 60 60h440V0zM13957.742 0q-60 0-60 60c0 410-397.742 650-397.742 904q0 60 60 60h440V0zM14459.024 0q-60 0-60 60c0 410-399.024 650-399.024 904q0 60 60 60h440V0zM14959.762 0q-60 0-60 60c0 410-399.762 650-399.762 904q0 60 60 60h440V0zM15460 0q-60 0-60 60c0 410-400 650-400 904q0 60 60 60h440V0zM15960 0q-60 0-60 60c0 410-400 650-400 904q0 60 60 60h440V0zM16460 0q-60 0-60 60c0 410-399.32 650-399.32 904q0 60 60 60H16500V0zM16960 0q-60 0-60 60c0 410-396.294 650-396.294 904q0 60 60 60H17000V0zM17460 0q-60 0-60 60c0 410-390.286 650-390.286 904q0 60 60 60H17500V0zM17960 0q-60 0-60 60c0 410-380.511 650-380.511 904q0 60 60 60H18000V0zM18460 0q-60 0-60 60c0 410-365.958 650-365.958 904q0 60 60 60H18500V0zM18960 0q-60 0-60 60c0 410-345.475 650-345.475 904q0 60 60 60H19000V0zM19460 0q-60 0-60 60c0 410-318.177 650-318.177 904q0 60 60 60H19500V0zM19960 0q-60 0-60 60c0 410-284.461 650-284.461 904q0 60 60 60H20000V0zM20460 0q-60 0-60 60c0 410-247.006 650-247.006 904q0 60 60 60H20500V0zM20960 0q-60 0-60 60c0 410-209.874 650-209.874 904q0 60 60 60H21000V0zM21460 0q-60 0-60 60c0 410-176.108 650-176.108 904q0 60 60 60H21500V0zM21960 0q-60 0-60 60c0 410-146.82 650-146.82 904q0 60 60 60H22000V0zM22460 0q-60 0-60 60c0 410-121.906 650-121.906 904q0 60 60 60H22500V0zM22960 0q-60 0-60 60c0 410-100.829 650-100.829 904q0 60 60 60H23000V0zM23460 0q-60 0-60 60c0 410-82.996 650-82.996 904q0 60 60 60H23500V0zM23960 0q-60 0-60 60c0 410-67.883 650-67.883 904q0 60 60 60H24000V0zM24460 0q-60 0-60 60c0 410-55.06 650-55.06 904q0 60 60 60h95.06V0zM24960 0q-60 0-60 60c0 410-44.179 650-44.179 904q0 60 60 60H25000V0zM25460 0q-60 0-60 60c0 410-34.962 650-34.962 904q0 60 60 60H25500V0zM25960 0q-60 0-60 60c0 410-27.185 650-27.185 904q0 60 60 60H26000V0zM26460 0q-60 0-60 60c0 410-20.665 650-20.665 904q0 60 60 60H26500V0zM26960 0q-60 0-60 60c0 410-15.253 650-15.253 904q0 60 60 60H27000V0zM27460 0q-60 0-60 60c0 410-10.822 650-10.822 904q0 60 60 60H27500V0zM27960 0q-60 0-60 60c0 410-7.27 650-7.27 904q0 60 60 60h47.27V0zM28460 0q-60 0-60 60c0 410-4.507 650-4.507 904q0 60 60 60H28500V0zM28960 0q-60 0-60 60c0 410-2.459 650-2.459 904q0 60 60 60H29000V0zM29460 0q-60 0-60 60c0 410-1.062 650-1.062 904q0 60 60 60H29500V0zM29960 0q-60 0-60 60c0 410-.258 650-.258 904q0 60 60 60H30000V0zM30460 0q-60 0-60 60v904q0 60 60 60h40V0z" fill="#ffffff"/></svg>