<svg xmlns="http://www.w3.org/2000/svg" viewBox="0 0 496 16" width="496" height="16"><path d="M1.016 8.13c.023.085.068.162.13.224l4 4c.094.093.221.146.354.146.132-.001.259-.053.353-.147.094-.094.146-.221.147-.353 0-.133-.053-.26-.146-.354C4.805 10.597 3.756 9.549 2.707 8.5H14.5c.022 0 .044-.001.066-.004.021-.003.043-.007.064-.013.021-.006.041-.013.061-.021.02-.008.04-.018.059-.029.019-.011.037-.023.054-.036.017-.013.034-.028.05-.043C14.947 8.26 15 8.133 15 8c0-.133-.053-.26-.146-.354-.094-.093-.221-.146-.354-.146H2.707c1.049-1.049 2.098-2.097 3.147-3.146.075-.075.125-.171.141-.276.017-.104 0-.212-.048-.306-.048-.095-.124-.171-.219-.219-.094-.048-.202-.065-.306-.048-.105.016-.201.066-.276.141l-4 4c-.062.062-.107.139-.13.224-.023.085-.023.175 0 .26M17.016 8.131c.023.084.068.161.13.223 1.329 1.329 2.66 2.66 3.99 3.989.094.093.22.145.353.145.132-.001.259-.053.353-.147.104-.094.165-.22.176-.352-.003-.135-.058-.265-.153-.361-1.047-1.047-2.094-2.092-3.14-3.139 3.921 0 7.843-.001 11.764-.001.022 0 .045-.001.067-.004.021-.003.043-.007.065-.013.022-.004.044-.01.065-.016.022-.006.044-.015.064-.024.019-.011.037-.023.054-.035.017-.013.034-.028.05-.043.093-.093.146-.22.146-.352-.004-.129-.06-.253-.156-.343-.094-.093-.221-.146-.354-.146H18.725c1.047-1.047 2.093-2.092 3.139-3.139.075-.075.125-.171.141-.276.02-.107.005-.217-.04-.313-.057-.095-.143-.171-.247-.219-.094-.048-.202-.065-.306-.048-.105.016-.2.066-.275.141-1.33 1.33-2.661 2.66-3.991 3.99-.061.062-.106.139-.129.223-.023.085-.023.175-.001.26M33.018 8.133c.022.084.067.16.128.221 1.318 1.318 2.637 2.636 3.956 3.954.093.09.219.141.352.14.131-.002.258-.054.353-.147.135-.093.228-.218.271-.349-.012-.143-.075-.279-.178-.384-1.039-1.038-2.078-2.077-3.115-3.116 3.889-.001 7.779-.003 11.669-.004.022-.001.046-.002.069-.005.022-.003.045-.007.067-.011.028.001.055.001.081 0 .027-.001.054-.004.08-.007.02-.011.038-.022.055-.034.017-.012.034-.025.049-.039.092-.092.144-.217.143-.348-.014-.118-.08-.229-.187-.308-.094-.091-.221-.143-.354-.143-3.89 0-7.781 0-11.671-.001 1.037-1.039 2.074-2.077 3.112-3.117.074-.075.124-.172.141-.276.028-.115.022-.233-.014-.337-.089-.094-.206-.169-.342-.216-.093-.048-.2-.065-.303-.048-.105.016-.2.065-.274.139l-3.958 3.958c-.062.061-.107.137-.13.221-.022.084-.023.173 0 .257M49.021 8.137c.022.082.065.157.125.217 1.296 1.296 2.594 2.592 3.893 3.887.091.088.216.136.348.133.131-.003.258-.055.353-.147.194-.091.346-.215.449-.343-.028-.157-.106-.308-.224-.427-1.024-1.024-2.048-2.048-3.069-3.073 3.829-.004 7.66-.007 11.491-.01.024-.002.049-.004.074-.007.024-.003.048-.006.071-.009.038.011.075.022.111.031.037.01.074.017.11.024.02-.009.039-.019.056-.03.017-.01.033-.022.048-.035.09-.089.141-.211.139-.339-.034-.095-.12-.184-.245-.241-.094-.088-.221-.139-.354-.139-3.833 0-7.666-.001-11.498-.003 1.02-1.025 2.04-2.049 3.062-3.074.073-.077.123-.174.141-.278.044-.129.055-.261.035-.38-.148-.092-.324-.166-.518-.213-.092-.047-.198-.063-.3-.047-.103.016-.197.064-.271.137-1.299 1.298-2.599 2.598-3.898 3.896-.061.06-.105.135-.128.218-.023.082-.023.169-.001.252M65.025 8.143c.021.08.063.153.121.211 1.262 1.262 2.527 2.523 3.793 3.783.089.081.213.125.344.121.13-.006.257-.058.353-.147.285-.09.531-.21.728-.336-.052-.178-.155-.351-.296-.493-1.001-1.001-2-2.003-2.997-3.007 3.735-.006 7.472-.013 11.212-.017.025-.005.052-.009.08-.011.027-.003.054-.004.078-.006.054.028.106.055.158.08.053.026.105.05.156.073.021-.008.041-.015.058-.023s.033-.018.047-.028c.088-.085.136-.202.133-.325-.067-.06-.184-.114-.339-.137-.094-.084-.221-.131-.354-.131-3.741 0-7.482-.003-11.222-.008.992-1.001 1.986-2.003 2.983-3.006.071-.078.121-.176.141-.28.069-.151.105-.306.112-.448-.242-.09-.511-.162-.797-.208-.091-.046-.194-.062-.294-.046-.101.015-.193.063-.266.134-1.267 1.266-2.535 2.533-3.803 3.799-.06.058-.104.131-.126.211-.023.08-.024.165-.003.245M81.031 8.153c.02.076.06.146.115.201 1.212 1.212 2.428 2.421 3.647 3.629.086.074.207.112.336.104.129-.009.256-.061.354-.147.42-.086.802-.202 1.138-.323-.09-.211-.227-.416-.402-.592-.967-.967-1.932-1.937-2.891-2.908 3.596-.011 7.197-.022 10.802-.03.028-.008.059-.013.09-.016.03-.003.061-.002.089 0 .076.052.151.102.226.151.075.05.15.097.224.144.023-.005.043-.009.06-.014.018-.005.033-.011.046-.017.083-.079.128-.188.123-.305-.114-.008-.276-.011-.474.017-.094-.077-.221-.121-.354-.121-3.608-.001-7.215-.005-10.82-.013.952-.968 1.907-1.937 2.867-2.908.068-.08.119-.179.141-.283.105-.184.179-.372.224-.548-.378-.087-.782-.156-1.204-.2-.088-.044-.188-.06-.285-.044-.098.014-.188.059-.258.128-1.222 1.219-2.444 2.439-3.665 3.657-.059.056-.101.126-.124.203-.023.077-.024.158-.005.235M97.04 8.166c.018.072.054.136.106.188 1.142 1.142 2.29 2.28 3.445 3.417.081.063.198.091.326.079.127-.014.254-.066.353-.147.608-.081 1.179-.191 1.707-.306-.141-.255-.327-.506-.548-.728-.921-.921-1.837-1.845-2.745-2.772 3.404-.017 6.816-.034 10.233-.047.032-.013.068-.02.104-.023.036-.003.072.001.103.008.108.084.214.167.321.25.107.082.213.163.319.243.025-.002.046-.002.064-.002.018.001.033 0 .043-.002.078-.07.118-.17.109-.277-.178.064-.403.132-.662.23-.094-.068-.221-.107-.354-.107-3.422 0-6.843-.007-10.26-.02.895-.921 1.797-1.846 2.705-2.772.065-.083.116-.183.142-.286.155-.231.281-.465.38-.687-.568-.082-1.161-.148-1.769-.189-.085-.042-.181-.057-.274-.042-.094.013-.18.056-.248.12-1.157 1.154-2.315 2.308-3.472 3.461-.057.053-.098.118-.121.19-.022.073-.025.149-.007.221M113.052 8.183c.015.066.047.124.094.171 1.05 1.05 2.109 2.094 3.177 3.136.076.048.188.065.313.047.124-.02.251-.072.353-.147.856-.075 1.677-.177 2.458-.283-.208-.315-.458-.625-.741-.908-.859-.86-1.711-1.725-2.552-2.592 3.151-.026 6.313-.051 9.482-.07.036-.019.079-.03.123-.033.043-.002.086.005.122.019.149.128.297.254.445.38.149.126.297.25.445.374.027.003.051.009.069.015.018.007.032.013.04.018.07-.059.103-.145.091-.24-.265.158-.572.321-.911.51-.094-.056-.221-.088-.354-.088-3.177 0-6.353-.01-9.522-.029.822-.859 1.652-1.725 2.493-2.592.06-.086.111-.188.142-.291.222-.292.416-.586.586-.87-.819-.076-1.66-.137-2.516-.175-.08-.039-.171-.053-.258-.039-.089.012-.17.051-.234.11-1.073 1.067-2.146 2.135-3.219 3.202-.054.048-.093.108-.116.174-.022.066-.025.135-.01.201M129.066 8.204c.012.058.04.11.08.15.936.936 1.885 1.864 2.847 2.789.068.031.174.033.296.007.122-.026.249-.079.354-.146 1.161-.068 2.291-.16 3.385-.255-.292-.388-.622-.771-.981-1.131-.783-.783-1.555-1.575-2.312-2.369 2.838-.037 5.691-.072 8.555-.098.042-.027.093-.042.145-.044.053-.002.104.01.145.031.201.181.4.361.6.541.2.18.4.358.599.535.031.009.056.022.075.036.019.015.031.029.036.042.061-.045.087-.115.069-.194-.37.275-.779.554-1.217.857-.094-.041-.221-.065-.354-.065-2.875 0-5.748-.014-8.612-.041.731-.783 1.474-1.575 2.231-2.369.054-.091.105-.196.142-.298.304-.366.584-.736.841-1.095-1.128-.069-2.276-.124-3.438-.158-.074-.035-.158-.048-.239-.036-.082.01-.157.045-.217.098-.968.961-1.937 1.922-2.905 2.882-.05.042-.088.095-.11.154-.022.058-.027.119-.015.177M145.082 8.228c.008.049.031.093.064.126.809.809 1.634 1.606 2.477 2.401.06.01.159-.003.278-.038.118-.035.245-.087.353-.146 1.503-.06 2.98-.14 4.425-.224-.386-.469-.804-.935-1.249-1.379-.697-.699-1.381-1.408-2.044-2.121 2.487-.048 4.993-.095 7.515-.129.049-.035.109-.055.172-.057.062-.002.122.015.17.045.258.242.516.482.773.722.258.24.515.478.772.716.035.016.063.036.082.059.019.023.03.047.032.069.05-.029.067-.081.044-.142-.489.405-1.013.815-1.561 1.245-.094-.024-.221-.039-.354-.039-2.536 0-5.07-.019-7.591-.054.629-.698 1.273-1.407 1.937-2.12.047-.096.098-.203.143-.304.396-.451.77-.905 1.125-1.349-1.474-.061-2.966-.109-4.47-.139-.067-.03-.144-.041-.218-.032-.074.009-.143.039-.198.085-.851.841-1.703 1.682-2.553 2.523-.047.036-.083.081-.104.131-.022.05-.028.102-.02.151M161.098 8.252c.005.04.022.076.048.102.681.681 1.381 1.346 2.104 2.009.051-.01.144-.04.259-.082.115-.044.242-.096.354-.147 1.848-.051 3.674-.12 5.472-.192-.48-.551-.988-1.1-1.518-1.63-.612-.613-1.206-1.239-1.775-1.87 2.134-.06 4.291-.118 6.468-.161.055-.043.125-.067.197-.069.072-.002.142.02.196.059.317.302.632.603.948.903.316.301.631.6.947.899.038.023.069.051.088.083.02.032.029.065.027.096.04-.013.049-.046.02-.09-.609.537-1.248 1.078-1.908 1.637-.094-.008-.221-.013-.354-.013-2.194 0-4.386-.024-6.562-.067.526-.612 1.072-1.239 1.641-1.869.04-.101.092-.212.143-.312.489-.536.959-1.073 1.413-1.604-1.824-.052-3.662-.093-5.511-.119-.061-.026-.13-.036-.197-.028-.067.007-.128.032-.179.071-.733.72-1.466 1.441-2.199 2.161-.043.03-.076.067-.097.108-.021.042-.029.085-.025.125M177.113 8.274c.001.032.013.06.033.08.562.562 1.147 1.106 1.759 1.647.043-.029.13-.074.242-.124.111-.051.238-.104.353-.147 2.168-.043 4.317-.101 6.442-.162-.567-.628-1.159-1.253-1.768-1.863-.533-.533-1.043-1.083-1.525-1.637 1.807-.071 3.641-.14 5.498-.191.061-.051.14-.079.222-.081.081-.001.16.025.22.073.37.358.74.714 1.109 1.071.37.357.739.712 1.108 1.068.042.028.075.064.095.104.021.04.028.082.023.121.031.003.031-.014-.003-.042-.72.66-1.466 1.322-2.229 1.999-.094.008-.221.012-.354.012-1.878 0-3.753-.028-5.61-.079.431-.533.885-1.083 1.367-1.637.034-.106.086-.219.143-.318.575-.615 1.134-1.231 1.679-1.841-2.146-.043-4.306-.078-6.474-.1-.055-.022-.117-.031-.176-.025-.06.006-.116.026-.162.058-.624.61-1.248 1.219-1.871 1.827-.04.024-.071.054-.092.087-.02.033-.03.068-.029.1M193.126 8.294c-.002.025.006.046.02.06.458.457.941.895 1.456 1.328.036-.045.118-.103.226-.16.109-.058.236-.11.354-.147 2.448-.036 4.881-.085 7.293-.136-.644-.695-1.308-1.387-1.987-2.067-.463-.463-.901-.946-1.306-1.433 1.52-.081 3.07-.159 4.647-.217.066-.057.153-.09.242-.092.09-.001.176.03.242.085.417.407.834.813 1.251 1.219.417.406.833.811 1.25 1.216.045.034.08.077.1.124.021.047.028.096.02.143.022.015.014.014-.024 0-.818.767-1.657 1.536-2.51 2.318-.094.021-.221.033-.354.033-1.6-.001-3.197-.033-4.774-.09.348-.463.721-.946 1.126-1.432.029-.111.081-.226.144-.324.65-.684 1.287-1.369 1.912-2.049-2.43-.037-4.872-.066-7.32-.085-.05-.018-.105-.025-.159-.021-.054.005-.104.021-.146.047-.528.511-1.056 1.023-1.584 1.533-.036.019-.065.042-.085.068-.021.027-.032.054-.034.079M209.138 8.311c-.005.018-.001.034.008.043.368.368.764.713 1.196 1.055.03-.06.107-.129.213-.192.106-.064.233-.116.354-.147 2.689-.03 5.365-.071 8.024-.114-.709-.752-1.436-1.502-2.176-2.242-.402-.403-.777-.828-1.117-1.258 1.273-.089 2.58-.175 3.916-.239.07-.063.163-.099.26-.1.096-.001.189.033.26.094.458.449.915.898 1.372 1.346.458.449.915.896 1.372 1.344.048.038.085.086.106.14.021.053.026.109.016.161.014.028.001.039-.041.037-.901.859-1.821 1.72-2.753 2.592-.094.032-.221.051-.354.051-1.361-.001-2.719-.036-4.054-.099.275-.403.58-.828.918-1.257.025-.114.077-.231.145-.329.715-.743 1.419-1.487 2.113-2.227-2.675-.031-5.358-.055-8.048-.071-.045-.015-.095-.021-.144-.018-.048.003-.094.016-.132.037-.446.427-.892.854-1.336 1.28-.034.015-.061.033-.082.053-.02.02-.032.041-.036.06M225.147 8.325c-.007.013-.006.024-.001.029.292.291.614.559.974.822.025-.072.098-.151.202-.219.104-.068.231-.121.353-.147 2.895-.025 5.779-.059 8.649-.095-.766-.802-1.546-1.601-2.337-2.392-.351-.352-.673-.728-.956-1.108 1.062-.096 2.161-.189 3.291-.258.075-.068.174-.106.276-.108.103-.001.201.037.276.103.492.485.984.97 1.476 1.454.492.485.984.969 1.476 1.453.05.042.088.095.109.153.022.059.026.12.014.178.008.037-.01.059-.056.068-.973.938-1.961 1.877-2.959 2.825-.094.042-.221.067-.354.067-1.158-.001-2.312-.039-3.442-.107.215-.352.46-.728.742-1.108.021-.117.073-.236.145-.333.77-.793 1.532-1.588 2.284-2.379-2.882-.025-5.772-.046-8.667-.059-.042-.013-.087-.018-.131-.016-.045.002-.086.012-.121.029-.376.355-.751.711-1.126 1.065-.031.011-.057.024-.077.039-.02.015-.033.03-.04.044M241.156 8.337c-.009.009-.012.015-.01.017.227.226.485.427.785.623.021-.082.09-.169.192-.242.103-.072.23-.125.354-.146 3.07-.021 6.13-.049 9.179-.079-.813-.843-1.639-1.685-2.473-2.519-.308-.309-.584-.642-.82-.981.883-.102 1.806-.201 2.761-.274.078-.073.181-.113.289-.115.107 0 .211.04.288.111.522.516 1.044 1.031 1.565 1.546.522.516 1.043 1.03 1.565 1.545.052.045.091.102.113.165.021.063.025.13.011.192.003.045-.02.076-.068.095-1.034 1.004-2.081 2.01-3.135 3.022-.094.052-.221.081-.354.081-.985-.001-1.966-.041-2.921-.114.163-.309.358-.642.592-.98.017-.12.07-.24.145-.337.818-.836 1.627-1.673 2.43-2.508-3.059-.021-6.125-.039-9.195-.049-.038-.011-.08-.016-.12-.014-.041.001-.078.008-.112.021-.315.295-.631.589-.945.882-.03.008-.055.017-.075.028-.019.01-.033.021-.041.03M257.163 8.347c-.011.006-.015.009-.017.007.172.171.376.315.623.454.018-.091.085-.185.185-.261.101-.076.228-.129.354-.146 3.219-.018 6.43-.041 9.632-.066-.855-.879-1.719-1.756-2.59-2.628-.271-.271-.509-.569-.703-.872.73-.107 1.502-.211 2.308-.287.08-.077.188-.12.3-.121.112 0 .219.042.3.117.547.542 1.093 1.083 1.64 1.625.547.541 1.093 1.082 1.64 1.623.054.048.094.109.116.176.021.067.025.137.009.204-.002.051-.028.09-.079.116-1.086 1.061-2.182 2.124-3.285 3.192-.094.059-.221.092-.354.092-.837-.001-1.67-.043-2.476-.12.118-.271.271-.569.465-.871.014-.122.066-.243.145-.339.857-.874 1.708-1.748 2.554-2.619-3.211-.018-6.426-.032-9.645-.041-.036-.009-.074-.013-.111-.012-.037 0-.072.006-.103.015-.265.243-.529.485-.793.726-.028.005-.052.011-.071.018-.02.006-.035.013-.044.018M273.169 8.356c-.012.002-.019.002-.023-.002.124.123.283.219.486.309.014-.098.078-.198.177-.277.1-.079.227-.132.354-.146 3.347-.015 6.687-.034 10.019-.054-.889-.91-1.787-1.817-2.69-2.721-.239-.239-.443-.507-.603-.779.6-.112 1.243-.22 1.921-.299.083-.08.194-.124.31-.126.116 0 .227.044.309.122.569.565 1.137 1.128 1.705 1.692.568.564 1.136 1.127 1.704 1.691.056.051.096.114.119.184.022.07.024.144.007.214-.005.058-.035.104-.088.136-1.13 1.11-2.268 2.221-3.412 3.337-.094.064-.221.101-.354.101-.711-.001-1.418-.045-2.097-.125.08-.239.196-.506.355-.778.012-.124.064-.247.145-.342.892-.905 1.779-1.81 2.661-2.713-3.34-.015-6.683-.027-10.03-.034-.033-.007-.068-.011-.102-.011-.035 0-.067.004-.097.011-.221.198-.442.395-.662.592-.026.002-.049.006-.069.009-.019.004-.035.007-.045.009M289.174 8.364c-.013-.001-.022-.004-.028-.01.084.083.203.137.368.186.012-.105.074-.21.172-.292.099-.082.226-.134.354-.146 3.455-.012 6.905-.027 10.348-.044-.918-.935-1.844-1.869-2.774-2.8-.212-.212-.388-.453-.519-.7.489-.115 1.022-.227 1.592-.309.085-.082.199-.128.317-.129.119-.001.233.045.318.126.587.583 1.173 1.166 1.76 1.749.587.584 1.172 1.166 1.759 1.749.057.053.098.119.121.191.022.073.024.15.006.223-.009.063-.042.114-.096.152-1.168 1.151-2.343 2.304-3.522 3.46-.094.07-.221.11-.354.11-.603-.001-1.202-.047-1.772-.129.048-.212.133-.454.262-.699.009-.126.062-.249.145-.345.921-.931 1.838-1.863 2.751-2.793-3.45-.012-6.902-.022-10.358-.028-.031-.006-.063-.009-.095-.009-.033-.001-.063.001-.091.006-.183.16-.367.319-.55.478-.025 0-.048.001-.067.002-.02.001-.035.002-.047.001M305.178 8.37c-.014-.003-.024-.008-.032-.016.049.048.135.067.268.081.009-.111.07-.22.167-.304.097-.084.224-.137.354-.147 3.548-.009 7.091-.022 10.63-.035-.944-.957-1.894-1.913-2.847-2.867-.189-.189-.341-.408-.446-.633.393-.119.833-.233 1.31-.318.086-.084.203-.131.324-.132.122-.001.238.047.325.13.602.6 1.204 1.199 1.806 1.798.603.6 1.204 1.198 1.807 1.798.057.054.1.122.122.198.022.075.024.154.005.229-.011.067-.047.124-.102.167-1.2 1.186-2.406 2.374-3.616 3.565-.094.074-.221.117-.354.117-.511-.001-1.018-.048-1.495-.132.02-.19.078-.409.182-.632.008-.128.06-.251.146-.347.946-.954 1.888-1.908 2.828-2.862-3.544-.009-7.09-.017-10.638-.022-.029-.005-.06-.007-.09-.008s-.059-.001-.085.002c-.152.128-.304.255-.455.381-.024-.001-.046-.003-.065-.004-.02-.002-.036-.003-.049-.007M321.182 8.376c-.015-.005-.026-.012-.036-.022.02.019.077.008.182-.009.008-.115.067-.228.163-.314.097-.086.224-.139.354-.147 3.627-.007 7.251-.017 10.87-.027-.966-.977-1.936-1.952-2.909-2.925-.169-.17-.301-.37-.384-.575.313-.122.672-.239 1.07-.326.088-.086.207-.134.33-.135.124 0 .243.048.331.133.616.614 1.231 1.227 1.847 1.84.615.614 1.23 1.226 1.846 1.839.058.057.101.127.124.204.022.077.024.159.004.236-.014.071-.051.131-.108.178-1.228 1.217-2.46 2.435-3.695 3.655-.094.078-.221.123-.354.123-.433-.001-.861-.049-1.259-.135-.004-.17.031-.37.114-.575.005-.128.058-.253.145-.348.967-.974 1.932-1.947 2.894-2.921-3.623-.007-7.249-.013-10.876-.017-.028-.004-.057-.006-.085-.007-.029-.002-.056-.003-.081-.001-.125.1-.25.199-.374.297-.023-.002-.044-.005-.064-.009-.019-.003-.035-.007-.049-.012M337.185 8.381c-.016-.007-.028-.016-.039-.027-.005-.006.028-.043.11-.085.006-.119.063-.235.159-.323.096-.088.223-.141.354-.146 3.694-.006 7.385-.014 11.074-.022-.985-.993-1.972-1.984-2.962-2.974-.152-.153-.267-.337-.331-.526.243-.124.535-.243.866-.331.089-.089.21-.137.335-.138.126-.001.247.049.336.136.627.625 1.253 1.25 1.88 1.875s1.254 1.249 1.881 1.875c.059.057.102.129.125.208.023.078.024.162.003.241-.016.074-.055.138-.113.188-1.251 1.243-2.506 2.486-3.762 3.731-.094.082-.221.128-.354.128-.367-.001-.729-.049-1.059-.138-.024-.153-.008-.337.056-.525.005-.13.057-.255.146-.349.985-.991 1.968-1.981 2.949-2.971-3.691-.006-7.384-.011-11.078-.013-.026-.003-.054-.005-.081-.007-.027-.002-.052-.004-.077-.004-.102.077-.204.153-.305.228-.023-.004-.043-.009-.062-.014-.02-.005-.037-.011-.051-.017M353.188 8.384c-.017-.008-.03-.018-.042-.03-.026-.027-.014-.085.049-.149.004-.123.061-.241.156-.331.096-.088.223-.141.354-.146 3.75-.004 7.499-.01 11.245-.016-1-1.006-2.002-2.011-3.006-3.015-.138-.139-.238-.309-.287-.485.186-.126.42-.247.695-.337.09-.089.212-.139.339-.14.128 0 .25.05.341.139.636.635 1.272 1.269 1.908 1.904.637.636 1.273 1.27 1.909 1.905.06.059.104.131.127.212.022.08.023.165.002.246-.018.076-.058.144-.117.196-1.27 1.264-2.544 2.53-3.819 3.795-.094.085-.221.133-.354.133-.311-.001-.617-.051-.891-.14-.04-.139-.04-.31.008-.485.003-.13.056-.256.146-.35 1-1.005 1.999-2.008 2.996-3.012-3.748-.005-7.498-.008-11.248-.011-.025-.002-.052-.004-.077-.006-.026-.002-.051-.004-.074-.006-.083.057-.166.114-.248.169-.022-.005-.042-.011-.061-.017-.019-.007-.036-.014-.051-.023M369.19 8.388c-.017-.01-.031-.021-.044-.034-.043-.044-.048-.121-.002-.203.004-.125.059-.245.153-.336.096-.09.223-.143.354-.146 3.798-.003 7.594-.008 11.388-.012-1.012-1.018-2.027-2.034-3.042-3.049-.127-.128-.214-.287-.251-.451.138-.128.325-.25.552-.341.092-.091.215-.141.343-.142.13 0 .253.051.344.14l1.933 1.93 1.932 1.929c.061.06.105.134.128.215.023.082.023.168.001.25-.018.079-.06.148-.12.204-1.287 1.282-2.576 2.565-3.866 3.848-.094.087-.221.136-.354.136-.264-.001-.523-.051-.751-.142-.054-.127-.068-.286-.032-.45.002-.131.055-.257.146-.351 1.013-1.016 2.025-2.032 3.035-3.048-3.795-.003-7.592-.005-11.39-.007-.024-.002-.049-.003-.074-.006-.025-.002-.049-.005-.072-.007-.066.04-.133.08-.199.119-.021-.006-.041-.013-.06-.021-.019-.007-.037-.016-.052-.025M385.192 8.39c-.017-.01-.032-.022-.046-.036-.058-.059-.076-.15-.043-.246.002-.128.057-.25.151-.342.095-.091.222-.144.354-.146 3.836-.002 7.671-.005 11.505-.009-1.023-1.026-2.048-2.051-3.073-3.077-.117-.117-.194-.267-.22-.423.098-.128.246-.252.435-.344.092-.092.216-.142.346-.143.13-.001.254.051.346.142.651.65 1.301 1.299 1.952 1.95l1.952 1.949c.061.061.106.135.129.218.022.083.023.17.001.253-.02.08-.063.152-.123.209-1.3 1.297-2.603 2.595-3.905 3.893-.094.088-.221.138-.354.138-.226-.001-.447-.051-.636-.143-.066-.118-.091-.267-.066-.422.002-.132.055-.258.146-.352 1.024-1.026 2.046-2.051 3.068-3.076-3.835-.002-7.67-.004-11.506-.005-.024-.002-.048-.003-.072-.005-.024-.003-.047-.007-.07-.01-.053.027-.107.054-.159.079-.021-.006-.041-.014-.06-.023-.019-.009-.036-.018-.052-.029M401.193 8.393c-.017-.012-.032-.024-.047-.039-.069-.07-.099-.173-.077-.282.002-.129.056-.253.149-.345.095-.092.222-.145.354-.146l11.6-.006c-1.032-1.034-2.064-2.067-3.097-3.1-.109-.11-.179-.252-.196-.4.066-.13.183-.255.34-.347.093-.093.218-.144.349-.145.131 0 .256.052.349.143.656.656 1.311 1.311 1.968 1.967.656.656 1.311 1.31 1.967 1.966.062.061.106.136.129.22.023.083.023.171.001.255-.021.082-.065.155-.126.214-1.31 1.309-2.623 2.618-3.935 3.928-.094.09-.221.141-.354.141-.196-.001-.386-.052-.544-.145-.075-.11-.108-.252-.092-.399.001-.132.054-.259.146-.353 1.032-1.033 2.063-2.066 3.094-3.099-3.867-.001-7.733-.003-11.601-.003-.023-.001-.046-.002-.07-.005-.023-.003-.045-.007-.067-.01-.043.016-.086.031-.128.045-.02-.006-.04-.015-.059-.024-.019-.01-.037-.02-.053-.031M417.194 8.394c-.017-.012-.033-.025-.048-.04-.078-.079-.117-.191-.103-.309.001-.131.055-.256.148-.349.094-.092.221-.145.354-.146 3.891-.001 7.782-.002 11.673-.004-1.039-1.039-2.077-2.078-3.116-3.117-.103-.104-.167-.24-.177-.383.041-.13.133-.256.267-.349.093-.093.219-.144.35-.145.132 0 .258.052.351.144.66.66 1.32 1.319 1.98 1.979.66.66 1.32 1.319 1.98 1.979.061.061.106.137.129.221.023.084.023.173.001.257-.022.083-.066.158-.127.218-1.32 1.318-2.64 2.637-3.961 3.955-.094.091-.221.143-.354.143-.171-.001-.337-.052-.471-.145-.082-.104-.123-.241-.113-.382.001-.132.054-.259.146-.353l3.114-3.117c-3.891-.001-7.782-.002-11.673-.002-.023-.001-.046-.002-.069-.005-.023-.002-.044-.007-.066-.011-.035.008-.069.015-.103.021-.02-.008-.039-.017-.058-.027-.019-.01-.037-.021-.054-.033M433.195 8.395c-.018-.012-.033-.025-.049-.041-.085-.086-.13-.205-.123-.329.001-.132.054-.258.148-.352.094-.092.221-.145.354-.146 3.909 0 7.818-.001 11.727-.002-1.043-1.043-2.087-2.086-3.13-3.13-.099-.099-.157-.231-.163-.37.023-.131.097-.257.213-.351.093-.093.22-.145.351-.146.132 0 .259.053.352.145l1.989 1.989c.664.663 1.326 1.325 1.989 1.988.062.062.107.139.13.223.023.084.023.174 0 .258-.022.084-.067.16-.128.221l-3.978 3.975c-.094.092-.221.145-.354.145-.154-.001-.302-.053-.418-.146-.088-.1-.133-.232-.128-.369 0-.133.053-.26.146-.354 1.043-1.043 2.086-2.086 3.129-3.13-3.91 0-7.819-.001-11.728-.001-.023 0-.045-.001-.067-.004-.023-.003-.044-.008-.066-.012-.028.001-.057.002-.084.001-.02-.007-.039-.017-.058-.027-.019-.011-.037-.022-.054-.035M449.196 8.396c-.018-.012-.034-.026-.05-.042-.09-.091-.139-.214-.136-.343 0-.133.054-.259.147-.353.094-.093.221-.146.354-.146 3.921 0 7.843-.001 11.764-.001-1.046-1.047-2.093-2.093-3.139-3.139-.096-.097-.151-.226-.154-.361.011-.132.072-.258.176-.352.093-.094.22-.146.352-.147.133 0 .259.053.353.146.666.665 1.33 1.33 1.995 1.995.666.665 1.33 1.33 1.996 1.995.062.062.107.139.13.223.023.085.023.175 0 .26-.023.084-.068.161-.13.222-1.329 1.33-2.66 2.66-3.99 3.99-.094.092-.221.145-.354.145-.142-.001-.278-.053-.381-.147-.091-.096-.141-.225-.139-.36 0-.133.053-.259.146-.353 1.046-1.047 2.093-2.093 3.139-3.14H449.51c-.022 0-.044-.001-.066-.004-.022-.003-.044-.008-.065-.013-.024-.003-.048-.006-.071-.011-.02-.008-.04-.018-.059-.028-.019-.011-.037-.023-.053-.036M465.196 8.397c-.018-.013-.034-.027-.05-.043-.092-.093-.144-.219-.144-.351.001-.133.054-.26.147-.354.094-.093.221-.146.354-.146h11.786c-1.049-1.049-2.097-2.096-3.146-3.145-.093-.094-.147-.222-.147-.355.003-.132.057-.259.154-.353.094-.094.22-.146.352-.147.133 0 .26.053.354.146.667.666 1.332 1.332 1.999 1.999.667.666 1.332 1.332 1.999 1.998.062.062.107.139.13.224.023.085.023.175 0 .26-.023.085-.068.162-.13.224-1.332 1.332-2.665 2.665-3.998 3.997-.094.093-.221.146-.354.146-.134-.001-.263-.053-.359-.147-.094-.094-.145-.222-.145-.355 0-.133.053-.259.146-.353 1.048-1.049 2.096-2.096 3.145-3.145h-11.786c-.023 0-.045-.001-.067-.004-.022-.003-.043-.008-.064-.013-.022-.005-.043-.011-.064-.018-.02-.008-.039-.018-.058-.029-.019-.011-.037-.023-.054-.036M481.196 8.397c-.018-.013-.034-.027-.05-.043C481.053 8.26 481 8.133 481 8c0-.133.053-.26.146-.354.094-.093.221-.146.354-.146h11.793c-1.049-1.049-2.098-2.097-3.147-3.146C490.053 4.26 490 4.133 490 4c.001-.132.053-.259.147-.353.094-.094.221-.146.353-.147.133 0 .26.053.354.146l2 2 2 2c.062.062.107.139.13.224.023.085.023.175 0 .26-.023.085-.068.162-.13.224l-4 4c-.094.093-.221.146-.354.146-.132-.001-.259-.053-.353-.147-.094-.094-.146-.221-.147-.353 0-.133.053-.26.146-.354 1.049-1.049 2.098-2.097 3.147-3.146H481.5c-.022 0-.044-.001-.066-.004-.022-.003-.043-.008-.064-.013-.021-.006-.042-.013-.062-.021-.02-.008-.039-.018-.058-.029-.019-.011-.037-.023-.054-.036" fill="#000000" fill-rule="evenodd"/></svg>