<svg xmlns="http://www.w3.org/2000/svg" viewBox="0 0 496 16" width="496" height="16"><path d="M1.196 8.397c-.018-.013-.034-.027-.05-.043C1.053 8.26 1 8.133 1 8c0-.133.053-.26.146-.354.094-.093.221-.146.354-.146h11.793c-1.049-1.049-2.098-2.097-3.147-3.146C10.053 4.26 10 4.133 10 4c.001-.132.053-.259.147-.353.094-.094.221-.146.353-.147.133 0 .26.053.354.146l2 2 2 2c.062.062.107.139.13.224.023.085.023.175 0 .26-.023.085-.068.162-.13.224l-4 4c-.094.093-.221.146-.354.146-.132-.001-.259-.053-.353-.147-.094-.094-.146-.221-.147-.353 0-.133.053-.26.146-.354 1.049-1.049 2.098-2.097 3.147-3.146H1.5c-.022 0-.044-.001-.066-.004-.022-.003-.043-.008-.064-.013-.021-.006-.042-.013-.062-.021-.02-.008-.039-.018-.058-.029-.019-.011-.037-.023-.054-.036M17.195 8.396c-.017-.013-.034-.027-.049-.042-.089-.09-.139-.214-.136-.343 0-.133.054-.259.147-.353.094-.093.221-.146.354-.146 3.921 0 7.843-.001 11.764-.001-1.046-1.046-2.093-2.093-3.14-3.139-.095-.096-.15-.226-.153-.361.011-.132.072-.258.176-.352.094-.094.22-.146.352-.147.133 0 .26.053.353.146.665.665 1.33 1.33 1.996 1.995l1.995 1.995c.062.062.107.139.13.223.023.085.023.175 0 .26-.023.084-.068.161-.13.222-1.33 1.33-2.66 2.66-3.99 3.989-.094.093-.221.146-.354.146-.142-.001-.278-.053-.381-.147-.092-.096-.141-.226-.139-.36 0-.133.053-.26.146-.354 1.046-1.046 2.093-2.092 3.139-3.139H17.51c-.022 0-.044-.002-.066-.005-.022-.003-.044-.007-.065-.012-.024-.002-.048-.006-.071-.011-.02-.008-.04-.018-.059-.028-.018-.011-.037-.023-.054-.036M33.194 8.394c-.017-.012-.033-.025-.048-.04-.078-.079-.116-.19-.102-.308.001-.13.055-.255.148-.348.095-.092.222-.145.354-.146 3.89-.001 7.78-.003 11.669-.004-1.037-1.039-2.076-2.078-3.115-3.116-.103-.105-.166-.241-.178-.384.043-.131.136-.256.271-.349.094-.093.219-.145.35-.146.132 0 .258.053.351.144.66.66 1.32 1.319 1.98 1.979.659.659 1.319 1.319 1.979 1.978.061.062.106.138.129.222.023.084.023.172.001.256-.022.083-.066.158-.127.218-1.32 1.318-2.639 2.636-3.959 3.954-.094.091-.221.143-.354.143-.173-.001-.34-.053-.475-.146-.082-.104-.122-.241-.112-.382.001-.133.054-.259.146-.354 1.038-1.038 2.076-2.077 3.113-3.115l-11.67-.003c-.023 0-.046-.002-.068-.004-.023-.003-.045-.007-.067-.012-.035.009-.069.016-.103.022-.021-.007-.041-.016-.059-.026-.019-.01-.037-.021-.054-.033M49.191 8.39c-.016-.01-.031-.023-.045-.036-.056-.057-.073-.146-.039-.241.003-.128.058-.25.152-.341.095-.091.222-.144.354-.146 3.831-.003 7.662-.006 11.491-.01-1.021-1.025-2.045-2.049-3.069-3.073-.118-.119-.196-.27-.224-.427.103-.128.255-.252.449-.343.092-.092.216-.143.345-.144.13 0 .255.052.347.142.65.649 1.3 1.299 1.95 1.948.649.649 1.299 1.298 1.949 1.947.061.06.105.135.128.218.023.082.024.169.002.252-.02.08-.063.152-.123.209-1.299 1.295-2.599 2.591-3.901 3.887-.094.088-.221.139-.354.139-.23-.001-.455-.052-.648-.144-.065-.118-.088-.269-.062-.425.002-.131.055-.257.146-.352 1.022-1.024 2.043-2.048 3.064-3.072-3.831-.003-7.662-.005-11.494-.006-.024-.001-.048-.003-.072-.005-.024-.003-.047-.006-.069-.009-.055.029-.11.056-.164.083-.021-.007-.041-.014-.06-.022-.019-.009-.037-.018-.053-.029M65.187 8.384c-.016-.009-.029-.018-.041-.03-.022-.023-.006-.077.061-.137.005-.121.061-.239.156-.329.096-.088.223-.141.354-.146 3.74-.004 7.477-.011 11.212-.017-.997-1.003-1.996-2.006-2.997-3.007-.141-.142-.244-.315-.296-.493.197-.126.443-.246.728-.336.091-.089.213-.138.339-.14.127 0 .249.05.34.139.634.633 1.268 1.266 1.903 1.899.634.633 1.268 1.265 1.903 1.898.06.059.103.131.126.211.023.08.024.165.002.245-.017.076-.057.143-.116.195-1.266 1.26-2.536 2.521-3.807 3.783-.094.084-.221.131-.354.131-.322-.001-.639-.05-.924-.139-.037-.142-.034-.315.017-.493.004-.13.057-.255.146-.35.997-1.001 1.993-2.003 2.987-3.004-3.737-.005-7.475-.009-11.215-.011-.026-.002-.052-.005-.078-.007-.026-.001-.051-.003-.074-.005-.087.062-.173.121-.259.18-.022-.005-.043-.01-.062-.016-.019-.006-.036-.013-.051-.021M81.18 8.374c-.014-.005-.025-.011-.034-.02.028.027.093.025.207.017.008-.114.067-.226.164-.312.097-.085.224-.138.353-.146 3.605-.008 7.206-.019 10.802-.03-.959-.971-1.924-1.941-2.891-2.908-.175-.176-.312-.381-.402-.592.336-.121.718-.237 1.138-.323.088-.086.206-.134.329-.135.124 0 .242.048.329.133.612.609 1.224 1.218 1.835 1.828.612.609 1.224 1.218 1.835 1.827.058.056.101.125.124.202.022.076.024.158.004.234-.013.07-.05.129-.107.175-1.219 1.208-2.444 2.417-3.672 3.629-.094.077-.221.121-.354.121-.455 0-.906-.048-1.326-.134.003-.175.045-.381.133-.591.007-.128.059-.252.146-.347.961-.968 1.919-1.937 2.875-2.904-3.601-.008-7.204-.015-10.808-.019-.028-.004-.058-.007-.086-.008-.029-.001-.057-.001-.083 0-.132.108-.265.216-.396.321-.024-.002-.046-.004-.065-.007-.019-.002-.036-.006-.05-.011M97.172 8.361c-.012 0-.021-.002-.026-.007.098.097.231.166.409.229.013-.102.076-.205.174-.287.099-.08.226-.133.354-.146 3.417-.013 6.829-.03 10.233-.047-.908-.926-1.824-1.851-2.745-2.772-.221-.222-.407-.473-.548-.728.528-.115 1.099-.225 1.707-.306.084-.081.197-.127.315-.128.118 0 .231.045.315.125.58.576 1.16 1.153 1.74 1.729.58.576 1.16 1.153 1.74 1.728.056.053.098.118.12.19.022.071.024.147.007.219-.008.061-.04.111-.093.147-1.155 1.137-2.317 2.274-3.484 3.416-.094.068-.221.107-.354.107-.641-.001-1.278-.046-1.886-.127.06-.222.155-.472.295-.727.01-.125.062-.248.145-.344.911-.922 1.817-1.844 2.719-2.765-3.411-.013-6.826-.023-10.243-.03-.032-.006-.065-.01-.098-.01s-.064.003-.092.008c-.197.174-.393.346-.589.518-.026.001-.049.003-.068.005-.02.002-.035.003-.047.003M113.16 8.344c-.009.006-.014.01-.014.01.19.189.412.352.677.51.018-.088.086-.179.187-.255.102-.074.229-.127.354-.146 3.169-.018 6.331-.044 9.482-.07-.841-.867-1.692-1.733-2.552-2.592-.283-.283-.533-.593-.741-.908.781-.106 1.602-.208 2.458-.283.08-.075.186-.117.296-.119.111 0 .217.042.296.115.539.533 1.077 1.066 1.616 1.599.538.533 1.076 1.065 1.614 1.597.054.048.093.107.115.173.022.065.025.134.01.199 0 .05-.025.086-.075.11-1.069 1.042-2.148 2.086-3.235 3.136-.094.056-.221.088-.354.088-.886-.001-1.768-.043-2.624-.118.133-.284.3-.594.507-.907.015-.122.067-.243.145-.339.844-.861 1.682-1.723 2.513-2.582-3.16-.019-6.326-.034-9.496-.044-.036-.009-.075-.014-.113-.013-.039.001-.075.008-.107.018-.281.26-.562.519-.843.777-.028.006-.053.013-.072.021-.02.009-.035.017-.044.023M129.146 8.323c-.006.014-.006.025 0 .031.304.303.636.582 1.007.857.026-.07.1-.148.204-.215.104-.068.231-.121.353-.147 2.864-.026 5.717-.061 8.555-.098-.757-.794-1.529-1.586-2.312-2.369-.359-.36-.689-.743-.981-1.131 1.094-.095 2.224-.187 3.385-.255.074-.067.172-.105.273-.107.103-.001.2.036.274.102.487.48.974.959 1.461 1.438.487.479.973.958 1.46 1.436.05.042.088.094.109.152.021.057.026.118.014.175.009.035-.009.056-.053.064-.963.925-1.94 1.853-2.929 2.789-.094.041-.221.065-.354.065-1.188-.001-2.373-.039-3.534-.106.224-.36.478-.743.769-1.13.021-.117.073-.235.145-.332.762-.786 1.515-1.573 2.259-2.357-2.852-.026-5.711-.047-8.575-.061-.043-.013-.088-.019-.133-.016-.045.002-.087.013-.123.03-.386.367-.772.732-1.157 1.097-.032.011-.058.026-.078.042-.02.015-.033.032-.039.046M145.13 8.299c-.003.023.003.042.016.055.431.43.887.84 1.377 1.245.034-.05.115-.111.222-.17.108-.059.235-.112.354-.147 2.521-.034 5.028-.081 7.515-.129-.663-.712-1.346-1.423-2.044-2.121-.445-.444-.863-.91-1.249-1.379 1.445-.084 2.922-.164 4.425-.224.067-.059.156-.092.247-.094.092-.001.181.031.248.088.429.419.859.839 1.288 1.257.429.419.858.837 1.287 1.255.046.035.081.08.102.129.021.048.027.1.018.148.02.019.011.021-.028.012-.844.795-1.707 1.592-2.585 2.401-.094.024-.221.039-.354.039-1.527-.001-3.051-.034-4.555-.093.326-.445.679-.911 1.063-1.379.028-.112.08-.228.145-.326.669-.702 1.327-1.404 1.973-2.103-2.505-.034-5.02-.062-7.542-.08-.049-.018-.102-.025-.154-.021-.052.005-.101.02-.142.044-.503.486-1.006.972-1.508 1.456-.036.018-.065.04-.085.064-.02.025-.032.05-.034.073M161.114 8.275c.001.031.012.059.032.079.559.559 1.14 1.099 1.75 1.637.043-.03.13-.075.241-.126.111-.05.238-.103.353-.146 2.177-.043 4.334-.101 6.468-.162-.569-.629-1.162-1.257-1.775-1.869-.53-.53-1.038-1.079-1.518-1.63 1.798-.072 3.624-.141 5.472-.192.062-.051.141-.08.222-.082.082-.001.161.026.221.074.372.359.743.718 1.114 1.076.371.358.742.715 1.112 1.072.043.029.075.065.096.105.02.04.028.082.022.121.031.003.03-.013-.003-.04-.724.663-1.472 1.329-2.238 2.009-.094.008-.221.013-.354.013-1.869-.001-3.735-.029-5.584-.08.429-.531.88-1.079 1.359-1.63.035-.106.086-.22.144-.318.577-.617 1.139-1.236 1.686-1.848-2.155-.043-4.324-.078-6.501-.1-.055-.022-.116-.031-.175-.025-.06.007-.116.027-.161.058-.621.607-1.242 1.213-1.863 1.818-.039.024-.07.054-.091.087-.021.033-.03.067-.029.099M177.099 8.253c.004.039.021.075.047.101.678.677 1.374 1.34 2.095 1.999.051-.011.144-.041.258-.084.115-.043.242-.096.354-.146 1.857-.051 3.692-.12 5.498-.191-.482-.554-.992-1.104-1.525-1.637-.609-.61-1.201-1.235-1.768-1.863 2.125-.061 4.274-.119 6.442-.162.055-.043.125-.068.197-.07.073-.002.143.02.198.06.317.303.635.606.952.908.317.302.634.603.951.903.038.023.069.052.089.084.02.032.029.065.026.096.041-.012.048-.045.02-.088-.613.541-1.254 1.085-1.917 1.647-.094-.008-.221-.012-.354-.012-2.185-.001-4.368-.025-6.536-.068.524-.61 1.067-1.235 1.633-1.862.041-.102.092-.212.144-.312.491-.539.964-1.078 1.42-1.611-1.832-.051-3.68-.093-5.538-.119-.061-.026-.129-.036-.196-.028-.066.008-.128.033-.178.071-.73.718-1.461 1.435-2.19 2.152-.043.03-.076.067-.097.108-.021.041-.03.084-.025.124M193.086 8.233c.007.047.028.089.06.121.782.782 1.58 1.551 2.398 2.318.058.005.156-.011.273-.048.118-.036.245-.089.354-.146 1.576-.058 3.128-.136 4.647-.217-.405-.487-.843-.97-1.306-1.433-.679-.679-1.343-1.372-1.987-2.067 2.412-.051 4.845-.1 7.293-.136.05-.037.112-.058.177-.06.064-.001.127.016.176.049.27.254.54.507.81.76.27.252.54.504.809.755.036.017.064.04.084.064.019.025.029.051.03.074.049-.024.064-.073.04-.13-.516.434-1.063.871-1.636 1.328-.094-.021-.221-.033-.354-.033-2.463 0-4.924-.02-7.372-.057.607-.68 1.231-1.372 1.874-2.067.046-.097.097-.205.143-.306.416-.469.811-.94 1.187-1.403-1.549-.058-3.115-.105-4.692-.135-.066-.029-.14-.04-.213-.031-.073.009-.14.038-.194.082-.826.816-1.652 1.631-2.478 2.446-.046.035-.081.079-.102.127-.022.048-.029.098-.021.145M209.074 8.216c.01.053.035.101.072.138.872.871 1.757 1.732 2.658 2.591.064.02.167.015.287-.016.12-.03.247-.083.353-.146 1.336-.064 2.643-.15 3.916-.239-.34-.429-.715-.855-1.117-1.258-.74-.739-1.467-1.49-2.176-2.242 2.659-.043 5.335-.084 8.024-.114.046-.031.102-.049.159-.051.058-.002.113.012.158.039.23.212.46.423.689.633.229.21.458.419.686.627.033.013.06.03.079.048.019.019.031.038.034.055.056-.036.077-.097.057-.166-.432.341-.899.687-1.394 1.055-.093-.034-.221-.052-.353-.052-2.702 0-5.402-.017-8.092-.048.68-.739 1.372-1.49 2.082-2.242.05-.093.101-.2.142-.301.351-.41.679-.822.986-1.225-1.304-.064-2.628-.116-3.964-.148-.071-.033-.151-.045-.228-.034-.078.01-.151.042-.208.091-.909.9-1.817 1.8-2.725 2.699-.049.039-.086.089-.107.142-.022.054-.028.111-.018.164M225.065 8.202c.012.058.04.111.081.152.948.948 1.907 1.887 2.88 2.824.069.033.176.036.298.011.122-.025.249-.078.353-.147 1.13-.068 2.23-.161 3.292-.257-.283-.38-.605-.756-.956-1.108-.791-.791-1.571-1.591-2.337-2.392 2.87-.036 5.754-.07 8.649-.095.041-.026.091-.041.143-.043.052-.002.101.009.142.03.196.176.391.351.585.525.195.173.389.347.583.519.03.008.056.02.075.034.019.013.031.027.036.038.062-.045.088-.117.072-.197-.36.263-.759.53-1.187.822-.094-.044-.221-.068-.354-.068-2.905 0-5.809-.014-8.704-.04.74-.79 1.492-1.59 2.258-2.391.054-.091.105-.196.142-.297.296-.36.567-.721.815-1.073-1.097-.069-2.214-.125-3.345-.16-.075-.035-.159-.048-.241-.037-.082.012-.158.047-.219.1-.979.972-1.957 1.943-2.936 2.914-.051.043-.089.097-.111.156-.021.059-.026.121-.014.18M241.056 8.19c.014.063.045.119.09.164 1.013 1.013 2.035 2.019 3.069 3.023.073.042.184.054.308.033.123-.021.25-.074.353-.146.955-.073 1.878-.172 2.76-.274-.235-.338-.511-.672-.819-.981-.834-.834-1.66-1.676-2.473-2.519 3.049-.03 6.109-.058 9.179-.079.038-.021.084-.034.13-.037.047-.002.092.007.129.023.166.146.332.29.497.433.165.143.33.285.494.427.029.005.053.013.071.022.019.008.032.017.039.024.067-.053.098-.135.084-.224-.299.197-.639.397-1.011.624-.094-.052-.221-.081-.354-.081-3.078 0-6.155-.012-9.225-.033.792-.834 1.594-1.676 2.408-2.519.058-.088.108-.191.142-.293.248-.317.471-.635.669-.944-.92-.073-1.861-.133-2.817-.17-.078-.037-.166-.051-.252-.038-.086.012-.166.05-.228.107-1.039 1.032-2.078 2.065-3.117 3.097-.052.046-.091.104-.113.168-.022.063-.026.13-.013.193M257.049 8.179c.016.067.049.127.097.175 1.069 1.068 2.145 2.131 3.231 3.192.076.051.19.07.315.053.125-.018.252-.07.353-.147.806-.076 1.578-.179 2.308-.287-.195-.303-.432-.601-.703-.872-.871-.872-1.735-1.749-2.59-2.628 3.202-.025 6.413-.048 9.632-.066.036-.017.077-.028.119-.03.043-.003.084.004.118.016.141.119.281.237.421.354.14.117.28.233.419.348.027.003.05.007.068.012.019.005.032.01.041.013.072-.06.106-.15.095-.246-.248.139-.538.283-.862.454-.093-.059-.221-.092-.353-.092-3.226 0-6.451-.01-9.67-.027.837-.872 1.681-1.75 2.535-2.628.062-.086.112-.188.143-.291.208-.279.389-.561.544-.833-.768-.077-1.56-.139-2.366-.178-.081-.039-.173-.053-.262-.04-.089.013-.172.052-.237.113-1.09 1.084-2.179 2.169-3.269 3.253-.054.049-.094.111-.116.178-.022.067-.026.138-.011.204M273.044 8.17c.016.07.052.134.102.184 1.116 1.116 2.238 2.227 3.368 3.337.08.058.196.083.322.069.127-.014.254-.067.354-.147.678-.079 1.322-.187 1.921-.299-.16-.272-.364-.54-.603-.779-.903-.903-1.801-1.812-2.69-2.721 3.332-.02 6.672-.039 10.019-.054.033-.014.071-.023.109-.026.039-.002.076.002.108.012.12.097.239.192.357.287.119.094.237.188.355.28.025 0 .047.002.065.004.019.001.033.003.042.002.076-.066.114-.162.105-.265-.203.091-.451.186-.734.31-.094-.065-.221-.102-.354-.102-3.352 0-6.703-.008-10.049-.022.875-.904 1.756-1.812 2.645-2.721.063-.083.114-.185.142-.288.174-.248.32-.499.439-.739-.64-.08-1.304-.145-1.983-.185-.084-.041-.178-.056-.27-.042-.092.014-.177.055-.243.118-1.134 1.129-2.267 2.258-3.4 3.387-.056.052-.097.116-.119.186-.022.07-.025.144-.008.214M289.038 8.163c.018.073.055.139.108.191 1.156 1.156 2.318 2.309 3.486 3.46.082.065.2.095.328.084.127-.012.254-.065.353-.147.57-.082 1.103-.193 1.591-.309-.13-.247-.306-.488-.518-.7-.93-.931-1.856-1.865-2.774-2.8 3.443-.017 6.893-.032 10.348-.044.031-.012.066-.019.101-.022.036-.002.07 0 .1.007.102.078.202.154.302.23.101.075.2.149.3.223.024-.002.045-.003.063-.004.018-.002.033-.003.044-.006.079-.072.12-.174.112-.282-.165.049-.377.103-.625.186-.093-.07-.221-.11-.353-.11-3.46 0-6.919-.006-10.374-.018.907-.93 1.819-1.865 2.738-2.8.066-.082.116-.182.142-.285.145-.222.26-.446.348-.659-.529-.082-1.084-.15-1.654-.192-.086-.042-.182-.057-.277-.042-.094.014-.181.057-.249.122-1.171 1.167-2.341 2.334-3.512 3.501-.057.054-.099.12-.121.193-.022.073-.024.15-.007.223M305.034 8.156c.019.075.058.144.112.198 1.191 1.191 2.386 2.378 3.586 3.565.085.071.205.106.333.096.129-.009.256-.062.353-.147.477-.084.917-.198 1.31-.318-.105-.223-.257-.443-.446-.632-.953-.953-1.903-1.91-2.847-2.867 3.539-.013 7.082-.026 10.63-.035.03-.01.062-.016.095-.019.033-.003.065-.001.093.003.085.061.17.122.255.181.085.059.169.117.252.174.023-.004.044-.007.062-.011.018-.003.033-.007.045-.013.082-.076.125-.183.118-.296-.133.014-.313.033-.531.081-.093-.075-.221-.117-.353-.117-3.552 0-7.103-.005-10.651-.015.935-.953 1.874-1.91 2.818-2.867.068-.08.117-.18.142-.283.12-.199.209-.4.271-.59-.436-.085-.898-.154-1.375-.197-.087-.044-.186-.059-.282-.044-.097.015-.186.059-.255.126-1.202 1.2-2.405 2.399-3.607 3.598-.058.056-.1.124-.122.2-.023.075-.025.154-.006.229M321.03 8.151c.02.077.06.147.116.203 1.22 1.22 2.444 2.438 3.672 3.655.086.075.207.114.337.106.129-.008.256-.06.353-.147.398-.086.758-.203 1.069-.325-.083-.205-.214-.405-.383-.575-.973-.973-1.943-1.948-2.909-2.925 3.619-.01 7.243-.02 10.87-.027.028-.008.058-.013.089-.016.03-.003.06-.003.087 0 .072.047.144.094.215.139.071.045.142.089.212.132.022-.005.042-.01.06-.016.018-.005.033-.012.046-.019.084-.08.129-.191.124-.308-.105-.016-.259-.028-.451-.009-.094-.079-.221-.123-.354-.123-3.63 0-7.26-.004-10.887-.012.959-.973 1.921-1.948 2.886-2.924.07-.08.119-.179.142-.282.099-.18.166-.362.205-.532-.355-.086-.737-.157-1.136-.201-.089-.045-.189-.06-.287-.045-.098.015-.189.06-.259.129-1.23 1.227-2.459 2.455-3.688 3.682-.059.056-.102.127-.124.204-.023.077-.024.159-.005.236M337.027 8.146c.021.079.062.151.119.208 1.245 1.245 2.493 2.488 3.744 3.731.088.08.211.121.341.115.13-.006.257-.059.353-.147.331-.088.623-.207.866-.331-.065-.189-.179-.373-.331-.526-.99-.99-1.977-1.982-2.962-2.974 3.689-.008 7.38-.016 11.074-.022.027-.005.055-.01.084-.013.028-.003.056-.003.082-.003.06.036.121.071.181.104s.119.066.178.097c.022-.007.041-.013.059-.021.018-.007.033-.015.047-.024.086-.083.133-.198.129-.318-.082-.042-.214-.079-.384-.085-.094-.082-.221-.128-.354-.128-3.696 0-7.392-.004-11.087-.009.979-.99 1.96-1.982 2.944-2.974.071-.078.12-.177.142-.281.08-.162.129-.328.149-.481-.288-.089-.603-.161-.934-.206-.09-.045-.192-.061-.291-.045-.1.015-.192.062-.263.132l-3.757 3.751c-.06.058-.103.13-.125.209-.023.079-.024.162-.004.241M353.025 8.142c.021.08.062.154.121.212 1.266 1.266 2.534 2.531 3.805 3.795.089.083.213.127.344.122.13-.004.258-.057.353-.146.274-.09.51-.211.695-.337-.049-.176-.149-.346-.287-.485-1.004-1.004-2.006-2.009-3.006-3.015 3.746-.006 7.495-.012 11.245-.016.026-.005.053-.009.079-.011.027-.003.054-.005.078-.006.051.026.102.051.153.074.05.024.1.046.15.067.02-.007.04-.015.057-.024.018-.009.034-.018.048-.029.088-.085.136-.203.133-.326-.063-.064-.176-.122-.328-.149-.093-.085-.221-.133-.353-.133-3.752 0-7.504-.002-11.255-.007.995-1.003 1.992-2.009 2.992-3.014.072-.078.121-.176.142-.28.065-.149.098-.3.102-.44-.231-.09-.489-.163-.764-.209-.091-.045-.194-.061-.295-.046-.1.016-.194.063-.266.135-1.271 1.27-2.543 2.54-3.814 3.81-.061.059-.104.132-.127.213-.022.08-.023.165-.002.245M369.022 8.139c.022.081.064.156.124.215 1.284 1.284 2.569 2.566 3.856 3.849.09.085.215.131.346.128.131-.004.258-.057.353-.147.228-.09.415-.213.552-.341-.036-.164-.123-.324-.25-.451-1.015-1.015-2.03-2.032-3.042-3.049 3.794-.004 7.59-.009 11.388-.012.024-.003.05-.006.075-.009.026-.003.051-.005.074-.007.044.017.087.034.129.049.043.015.085.029.126.042.021-.009.04-.018.057-.027.018-.01.034-.021.048-.033.09-.088.139-.208.137-.334-.046-.081-.144-.158-.281-.202-.093-.087-.221-.136-.353-.136-3.799 0-7.598-.002-11.395-.005 1.009-1.016 2.02-2.032 3.032-3.049.073-.077.122-.174.142-.279.053-.137.073-.277.063-.405-.183-.091-.394-.165-.622-.211-.092-.047-.196-.063-.298-.047-.102.016-.196.064-.268.136l-3.863 3.86c-.061.06-.105.134-.128.216-.022.082-.023.167-.002.249M385.021 8.136c.021.083.065.158.125.218 1.298 1.298 2.597 2.595 3.897 3.892.092.088.218.136.349.133.131-.002.259-.055.353-.146.189-.091.337-.215.435-.345-.026-.155-.103-.305-.22-.422-1.025-1.025-2.05-2.051-3.073-3.077 3.834-.004 7.669-.007 11.505-.009.024-.002.049-.005.073-.008.025-.003.049-.006.071-.009.037.011.074.021.11.029.036.009.071.016.106.022.02-.009.039-.019.056-.03.018-.011.034-.023.049-.036.091-.089.141-.211.139-.339-.033-.097-.117-.188-.241-.246-.094-.089-.221-.139-.354-.139-3.837 0-7.674-.002-11.51-.004 1.021-1.025 2.043-2.051 3.066-3.077.073-.076.122-.173.141-.278.042-.128.052-.258.031-.376-.144-.092-.316-.167-.505-.214-.093-.047-.198-.063-.301-.047-.102.016-.197.064-.27.138l-3.903 3.9c-.061.061-.105.136-.128.218-.023.083-.023.17-.001.252M401.019 8.134c.022.083.066.159.127.22 1.31 1.31 2.62 2.619 3.931 3.928.092.089.218.139.35.137.132-.002.259-.055.353-.147.158-.092.275-.217.341-.347-.017-.148-.086-.291-.196-.4-1.033-1.033-2.065-2.066-3.097-3.1l11.6-.006c.023-.001.047-.004.07-.006.024-.003.047-.007.069-.011.032.006.063.01.094.013.031.003.061.005.09.005.02-.01.039-.02.056-.032.017-.011.034-.024.049-.038.092-.091.143-.215.142-.344-.023-.108-.097-.211-.211-.281-.094-.091-.221-.142-.354-.142-3.867 0-7.735-.001-11.602-.002 1.03-1.033 2.06-2.066 3.092-3.1.074-.075.123-.173.142-.277.033-.12.034-.243.005-.353-.113-.093-.254-.169-.412-.216-.093-.047-.199-.064-.302-.047-.104.016-.199.065-.273.138-1.311 1.312-2.623 2.623-3.934 3.934-.062.06-.106.136-.129.22-.023.083-.023.171-.001.254M417.018 8.132c.022.084.067.161.128.222 1.319 1.319 2.638 2.637 3.957 3.955.093.091.22.142.352.14.132-.001.259-.054.353-.146.133-.093.226-.219.267-.35-.011-.142-.073-.279-.177-.382-1.039-1.039-2.077-2.078-3.116-3.117 3.891-.002 7.782-.003 11.673-.004.023-.001.046-.003.069-.006.023-.003.045-.006.067-.011.027.001.055.001.081 0 .027-.001.053-.004.079-.008.019-.01.037-.021.055-.033.017-.013.034-.026.049-.041.092-.092.144-.217.143-.347-.013-.118-.079-.23-.186-.309-.094-.092-.221-.143-.353-.143-3.892 0-7.784-.001-11.675-.002 1.037-1.039 2.075-2.078 3.113-3.117.074-.075.124-.172.141-.277.028-.114.022-.231-.015-.335-.088-.094-.205-.17-.339-.217-.093-.048-.2-.064-.303-.048-.104.017-.2.066-.274.14-1.32 1.319-2.64 2.639-3.959 3.958-.062.062-.107.138-.129.222-.023.084-.023.172-.001.256M433.017 8.131c.023.084.067.161.129.223 1.325 1.325 2.651 2.65 3.977 3.975.093.092.22.144.352.143.132-.001.259-.053.353-.147.116-.093.19-.219.213-.351-.006-.137-.064-.27-.163-.369l-3.13-3.13c3.909-.001 7.818-.002 11.727-.002.023-.001.045-.003.068-.006.022-.002.044-.006.065-.011.025-.002.049-.005.073-.01.024-.004.047-.01.069-.017.019-.011.038-.022.055-.035.017-.013.034-.027.049-.042.093-.092.146-.219.145-.35-.007-.124-.067-.243-.168-.329-.094-.093-.221-.145-.354-.145-3.909 0-7.819 0-11.728-.001 1.043-1.043 2.085-2.086 3.128-3.13.075-.075.125-.172.142-.276.022-.11.012-.223-.03-.322-.07-.094-.169-.171-.285-.218-.094-.048-.201-.065-.305-.048-.104.016-.2.066-.274.14l-3.978 3.978c-.062.061-.107.138-.129.223-.023.084-.023.173-.001.257M449.017 8.13c.022.085.067.162.129.224 1.33 1.33 2.66 2.66 3.99 3.989.094.093.221.145.353.145.132-.001.26-.054.353-.147.103-.093.166-.22.175-.352-.002-.135-.057-.265-.153-.361l-3.139-3.139c3.921 0 7.843-.001 11.764-.001.023 0 .045-.002.067-.005.022-.002.043-.007.065-.012.022-.004.044-.009.066-.016.021-.007.043-.015.063-.024.019-.01.037-.022.054-.035.018-.013.034-.028.05-.043.093-.093.146-.22.146-.352-.004-.129-.059-.253-.156-.343-.094-.093-.221-.146-.354-.146h-11.765l3.139-3.139c.075-.075.125-.172.142-.276.019-.107.005-.217-.041-.314-.057-.094-.143-.17-.247-.218-.094-.048-.201-.065-.306-.048-.104.016-.201.066-.275.141-1.33 1.33-2.66 2.66-3.991 3.99-.062.062-.106.139-.129.224-.023.084-.023.174 0 .258M465.016 8.13c.023.085.068.162.13.224 1.332 1.332 2.665 2.665 3.998 3.997.093.094.221.146.353.146.133-.001.26-.053.353-.147.096-.094.151-.221.154-.353-.001-.133-.054-.261-.147-.355-1.049-1.048-2.097-2.097-3.146-3.145h11.786c.023 0 .045-.001.066-.004.022-.003.043-.007.065-.013.021-.005.042-.012.062-.02.021-.008.041-.017.06-.027.019-.011.037-.023.054-.036.017-.014.034-.028.05-.044.093-.093.146-.22.146-.353-.001-.131-.054-.258-.149-.351-.094-.093-.221-.146-.353-.146h-11.787c1.049-1.048 2.097-2.096 3.145-3.144.076-.075.125-.172.142-.276.017-.106.001-.213-.046-.308-.051-.095-.13-.171-.226-.219-.095-.048-.202-.065-.307-.048-.104.016-.201.066-.275.141-1.333 1.332-2.665 2.665-3.998 3.997-.062.063-.107.14-.13.225-.022.085-.022.174 0 .259M481.016 8.13c.023.085.068.162.13.224l4 4c.094.093.221.146.354.146.132-.001.259-.053.353-.147.094-.094.146-.221.147-.353 0-.133-.053-.26-.146-.354-1.049-1.049-2.098-2.097-3.147-3.146H494.5c.022 0 .044-.001.066-.004.021-.003.043-.007.064-.013.021-.006.041-.013.061-.021.02-.008.04-.018.059-.029.019-.011.037-.023.054-.036.017-.013.034-.028.05-.043.093-.094.146-.221.146-.354 0-.133-.053-.26-.146-.354-.094-.093-.221-.146-.354-.146h-11.793c1.049-1.049 2.098-2.097 3.147-3.146.075-.075.125-.171.141-.276.017-.104 0-.212-.048-.306-.048-.095-.124-.171-.219-.219-.094-.048-.202-.065-.306-.048-.105.016-.201.066-.276.141l-4 4c-.062.062-.107.139-.13.224-.023.085-.023.175 0 .26" fill="#000000" fill-rule="evenodd"/></svg>