<svg xmlns="http://www.w3.org/2000/svg" viewBox="0 0 30500 1024" width="30500" height="1024"><path d="M460 0q-60 0-60 60v904q0 60 60 60h40V0zM960 0q-60 0-60 60c0 410-.99 650-.99 904q0 60 60 60H1000V0zM1460 0q-60 0-60 60c0 410-4.256 650-4.256 904q0 60 60 60H1500V0zM1960 0q-60 0-60 60c0 410-10.345 650-10.345 904q0 60 60 60H2000V0zM2460 0q-60 0-60 60c0 410-19.972 650-19.972 904q0 60 60 60H2500V0zM2960 0q-60 0-60 60c0 410-34.042 650-34.042 904q0 60 60 60H3000V0zM3460 0q-60 0-60 60c0 410-53.579 650-53.579 904q0 60 60 60H3500V0zM3960 0q-60 0-60 60c0 410-79.385 650-79.385 904q0 60 60 60H4000V0zM4460 0q-60 0-60 60c0 410-111.221 650-111.221 904q0 60 60 60H4500V0zM4960 0q-60 0-60 60c0 410-146.918 650-146.918 904q0 60 60 60H5000V0zM5460 0q-60 0-60 60c0 410-182.901 650-182.901 904q0 60 60 60H5500V0zM5960 0q-60 0-60 60c0 410-216.182 650-216.182 904q0 60 60 60H6000V0zM6460 0q-60 0-60 60c0 410-245.438 650-245.438 904q0 60 60 60H6500V0zM6960 0q-60 0-60 60c0 410-270.568 650-270.568 904q0 60 60 60H7000V0zM7460 0q-60 0-60 60c0 410-291.987 650-291.987 904q0 60 60 60H7500V0zM7960 0q-60 0-60 60c0 410-310.225 650-310.225 904q0 60 60 60H8000V0zM8460 0q-60 0-60 60c0 410-325.773 650-325.773 904q0 60 60 60H8500V0zM8960 0q-60 0-60 60c0 410-339.047 650-339.047 904q0 60 60 60H9000V0zM9460 0q-60 0-60 60c0 410-350.387 650-350.387 904q0 60 60 60H9500V0zM9960 0q-60 0-60 60c0 410-360.067 650-360.067 904q0 60 60 60H10000V0zM10460 0q-60 0-60 60c0 410-368.31 650-368.31 904q0 60 60 60H10500V0zM10960 0q-60 0-60 60c0 410-375.298 650-375.298 904q0 60 60 60H11000V0zM11460 0q-60 0-60 60c0 410-381.181 650-381.181 904q0 60 60 60H11500V0zM11960 0q-60 0-60 60c0 410-386.082 650-386.082 904q0 60 60 60H12000V0zM12460 0q-60 0-60 60c0 410-390.107 650-390.107 904q0 60 60 60H12500V0zM12960 0q-60 0-60 60c0 410-393.343 650-393.343 904q0 60 60 60H13000V0zM13460 0q-60 0-60 60c0 410-395.867 650-395.867 904q0 60 60 60H13500V0zM13960 0q-60 0-60 60c0 410-397.742 650-397.742 904q0 60 60 60H14000V0zM14460 0q-60 0-60 60c0 410-399.024 650-399.024 904q0 60 60 60H14500V0zM14960 0q-60 0-60 60c0 410-399.762 650-399.762 904q0 60 60 60H15000V0zM15460 0q-60 0-60 60c0 410-400 650-400 904q0 60 60 60h440V0zM15959.01 0q-60 0-60 60c0 410-399.01 650-399.01 904q0 60 60 60h440V0z" fill="#ffffff"/><path d="M16455.744 0q-60 0-60 60c0 410-395.744 650-395.744 904q0 60 60 60h440V0zM16949.655 0q-60 0-60 60c0 410-389.655 650-389.655 904q0 60 60 60h440V0zM17440.028 0q-60 0-60 60c0 410-380.028 650-380.028 904q0 60 60 60h440V0zM17925.958 0q-60 0-60 60c0 410-365.958 650-365.958 904q0 60 60 60h440V0zM18406.421 0q-60 0-60 60c0 410-346.421 650-346.421 904q0 60 60 60h440V0zM18880.615 0q-60 0-60 60c0 410-320.615 650-320.615 904q0 60 60 60h440V0zM19348.779 0q-60 0-60 60c0 410-288.779 650-288.779 904q0 60 60 60h440V0zM19813.082 0q-60 0-60 60c0 410-253.082 650-253.082 904q0 60 60 60h440V0zM20277.099 0q-60 0-60 60c0 410-217.099 650-217.099 904q0 60 60 60h440V0zM20743.818 0q-60 0-60 60c0 410-183.818 650-183.818 904q0 60 60 60h440V0zM21214.562 0q-60 0-60 60c0 410-154.562 650-154.562 904q0 60 60 60h440V0zM21689.432 0q-60 0-60 60c0 410-129.432 650-129.432 904q0 60 60 60h440V0zM22168.013 0q-60 0-60 60c0 410-108.013 650-108.013 904q0 60 60 60h440V0zM22649.775 0q-60 0-60 60c0 410-89.775 650-89.775 904q0 60 60 60h440V0zM23134.227 0q-60 0-60 60c0 410-74.227 650-74.227 904q0 60 60 60h440V0zM23620.953 0q-60 0-60 60c0 410-60.953 650-60.953 904q0 60 60 60h440V0zM24109.613 0q-60 0-60 60c0 410-49.613 650-49.613 904q0 60 60 60h440V0zM24599.933 0q-60 0-60 60c0 410-39.933 650-39.933 904q0 60 60 60h440V0zM25091.69 0q-60 0-60 60c0 410-31.69 650-31.69 904q0 60 60 60h440V0zM25584.702 0q-60 0-60 60c0 410-24.702 650-24.702 904q0 60 60 60h440V0zM26078.819 0q-60 0-60 60c0 410-18.819 650-18.819 904q0 60 60 60h440V0zM26573.918 0q-60 0-60 60c0 410-13.918 650-13.918 904q0 60 60 60h440V0zM27069.893 0q-60 0-60 60c0 410-9.893 650-9.893 904q0 60 60 60h440V0zM27566.657 0q-60 0-60 60c0 410-6.657 650-6.657 904q0 60 60 60h440V0zM28064.133 0q-60 0-60 60c0 410-4.133 650-4.133 904q0 60 60 60h440V0zM28562.258 0q-60 0-60 60c0 410-2.258 650-2.258 904q0 60 60 60h440V0zM29060.976 0q-60 0-60 60c0 410-.976 650-.976 904q0 60 60 60h440V0zM29560.238 0q-60 0-60 60c0 410-.238 650-.238 904q0 60 60 60h440V0zM30060 0q-60 0-60 60v904q0 60 60 60h440V0z" fill="#ffffff"/></svg>